<svg width="240" height="240" viewBox="0 0 240 240" fill="none" xmlns="http://www.w3.org/2000/svg">
  <defs>
    <filter id="shadow1" x="54" y="22" width="142" height="178" filterUnits="userSpaceOnUse" color-interpolation-filters="sRGB">
      <feDropShadow dx="0" dy="8" stdDeviation="8" flood-color="#B8758D" flood-opacity="0.18"/>
    </filter>
    <linearGradient id="trunk1" x1="120" y1="102" x2="120" y2="196" gradientUnits="userSpaceOnUse">
      <stop stop-color="#9B6A52"/>
      <stop offset="0.58" stop-color="#7B503E"/>
      <stop offset="1" stop-color="#5B382C"/>
    </linearGradient>
    <radialGradient id="petalLight1" cx="0" cy="0" r="1" gradientUnits="userSpaceOnUse" gradientTransform="translate(120 80) rotate(90) scale(62 74)">
      <stop offset="0" stop-color="#FFFDFE"/>
      <stop offset="0.38" stop-color="#FFEAF1"/>
      <stop offset="0.72" stop-color="#F7C2D0"/>
      <stop offset="1" stop-color="#E98FA9"/>
    </radialGradient>
  </defs>
  <ellipse cx="120" cy="214" rx="56" ry="12" fill="#E8CAD4" fill-opacity="0.5"/>
  <g filter="url(#shadow1)">
    <path d="M110 196V150C110 132 114 116 120 104C126 116 130 132 130 150V196H110Z" fill="url(#trunk1)"/>
    <path d="M120 119C109 130 98 143 91 159" stroke="#724838" stroke-width="6" stroke-linecap="round"/>
    <path d="M121 118C134 129 146 142 154 158" stroke="#724838" stroke-width="6" stroke-linecap="round"/>
    <path d="M117 136C108 143 101 152 97 161" stroke="#855342" stroke-width="4" stroke-linecap="round"/>
    <path d="M125 136C134 144 141 152 145 161" stroke="#855342" stroke-width="4" stroke-linecap="round"/>
    <path d="M104 126C101 118 94 111 88 108" stroke="#8F5E4B" stroke-width="3.5" stroke-linecap="round"/>
    <path d="M136 126C140 118 147 112 154 109" stroke="#8F5E4B" stroke-width="3.5" stroke-linecap="round"/>
    <path d="M75 122C62 109 60 87 69 68C82 40 115 28 146 35C172 41 190 62 190 86C190 109 176 126 155 132H92C85 132 79 129 75 122Z" fill="url(#petalLight1)"/>
    <path d="M68 104C58 93 58 76 66 64C78 45 103 42 121 53C136 63 142 82 136 98C130 112 116 119 99 119C85 119 75 114 68 104Z" fill="#F7B8C9"/>
    <path d="M113 47C126 34 149 33 165 43C183 54 189 76 179 92C169 108 147 114 128 108C109 103 100 61 113 47Z" fill="#F7AFC2"/>
    <path d="M148 72C159 61 177 60 189 69C202 79 204 97 194 109C184 121 165 124 151 116C138 108 138 83 148 72Z" fill="#F39EB5"/>
    <path d="M87 53C97 47 111 46 121 52C132 58 136 71 132 82C128 95 116 103 103 103C91 103 80 96 76 85C72 74 77 60 87 53Z" fill="#FFE4EC"/>
    <path d="M90 129C103 120 118 117 133 119C147 121 159 127 163 138C147 144 101 145 90 129Z" fill="#FAD6E0" fill-opacity="0.9"/>
    <circle cx="90" cy="79" r="9" fill="#FFF9FB"/>
    <circle cx="116" cy="64" r="10" fill="#FFF9FB"/>
    <circle cx="142" cy="61" r="9" fill="#FFF8FB"/>
    <circle cx="163" cy="82" r="8" fill="#FFF8FB"/>
    <circle cx="80" cy="102" r="8" fill="#FFF9FB"/>
    <circle cx="108" cy="98" r="8" fill="#FFF9FB"/>
    <circle cx="138" cy="99" r="9" fill="#FFF9FB"/>
  </g>
</svg>
