<svg width="240" height="240" viewBox="0 0 240 240" fill="none" xmlns="http://www.w3.org/2000/svg">
  <defs>
    <filter id="shadow2" x="62" y="36" width="132" height="164" filterUnits="userSpaceOnUse" color-interpolation-filters="sRGB">
      <feDropShadow dx="0" dy="8" stdDeviation="7" flood-color="#BF8C9D" flood-opacity="0.16"/>
    </filter>
    <linearGradient id="trunk2" x1="120" y1="110" x2="120" y2="196" gradientUnits="userSpaceOnUse">
      <stop stop-color="#966852"/>
      <stop offset="0.58" stop-color="#76503F"/>
      <stop offset="1" stop-color="#59382D"/>
    </linearGradient>
    <radialGradient id="petalLight2" cx="0" cy="0" r="1" gradientUnits="userSpaceOnUse" gradientTransform="translate(121 92) rotate(90) scale(52 63)">
      <stop offset="0" stop-color="#FFFDFE"/>
      <stop offset="0.42" stop-color="#FFEDF2"/>
      <stop offset="0.76" stop-color="#F7C8D4"/>
      <stop offset="1" stop-color="#EAA0B4"/>
    </radialGradient>
  </defs>
  <ellipse cx="120" cy="214" rx="50" ry="11" fill="#ECD5DC" fill-opacity="0.48"/>
  <g filter="url(#shadow2)">
    <path d="M111 196V153C111 137 114 123 120 112C126 123 129 137 129 153V196H111Z" fill="url(#trunk2)"/>
    <path d="M120 126C111 135 102 145 96 158" stroke="#74493A" stroke-width="5.5" stroke-linecap="round"/>
    <path d="M121 126C131 135 140 145 146 158" stroke="#74493A" stroke-width="5.5" stroke-linecap="round"/>
    <path d="M114 140C108 146 103 153 99 161" stroke="#875543" stroke-width="3.8" stroke-linecap="round"/>
    <path d="M126 140C132 146 137 153 141 161" stroke="#875543" stroke-width="3.8" stroke-linecap="round"/>
    <path d="M84 124C74 114 71 98 77 83C87 60 113 49 138 54C160 58 175 74 176 93C177 112 166 126 149 131H99C93 131 88 129 84 124Z" fill="url(#petalLight2)"/>
    <path d="M78 110C70 101 69 87 76 77C85 63 104 59 119 67C132 74 137 88 132 101C127 113 114 119 100 119C90 119 82 116 78 110Z" fill="#F7CBD7"/>
    <path d="M119 59C129 49 146 48 158 57C171 66 176 82 169 94C161 106 145 111 130 107C116 103 110 69 119 59Z" fill="#F6C0CF"/>
    <path d="M143 81C151 73 165 72 175 79C186 87 188 99 181 109C173 118 158 121 147 116C137 110 136 91 143 81Z" fill="#F2B2C2"/>
    <path d="M93 68C100 64 110 63 118 68C127 74 130 85 126 94C122 104 112 110 101 110C90 110 81 104 78 95C75 86 82 73 93 68Z" fill="#FFE9EF"/>
    <path d="M96 128C107 121 120 119 132 121C143 122 153 128 156 137C143 143 106 144 96 128Z" fill="#FBE0E7" fill-opacity="0.9"/>
    <circle cx="96" cy="85" r="7.5" fill="#FFF9FB"/>
    <circle cx="119" cy="72" r="8" fill="#FFF9FB"/>
    <circle cx="141" cy="71" r="7.5" fill="#FFF9FB"/>
    <circle cx="158" cy="88" r="6.5" fill="#FFF9FB"/>
    <circle cx="87" cy="102" r="6.5" fill="#FFF9FB"/>
    <circle cx="111" cy="99" r="6.5" fill="#FFF9FB"/>
    <circle cx="135" cy="100" r="7" fill="#FFF9FB"/>
  </g>
</svg>
