<svg width="240" height="240" viewBox="0 0 240 240" fill="none" xmlns="http://www.w3.org/2000/svg">
  <defs>
    <filter id="shadow3" x="68" y="50" width="124" height="150" filterUnits="userSpaceOnUse" color-interpolation-filters="sRGB">
      <feDropShadow dx="0" dy="7" stdDeviation="6.5" flood-color="#C49AA8" flood-opacity="0.15"/>
    </filter>
    <linearGradient id="trunk3" x1="120" y1="116" x2="120" y2="196" gradientUnits="userSpaceOnUse">
      <stop stop-color="#9A6D58"/>
      <stop offset="0.58" stop-color="#795342"/>
      <stop offset="1" stop-color="#5B3B2F"/>
    </linearGradient>
    <radialGradient id="petalLight3" cx="0" cy="0" r="1" gradientUnits="userSpaceOnUse" gradientTransform="translate(120 104) rotate(90) scale(45 55)">
      <stop offset="0" stop-color="#FFFDFE"/>
      <stop offset="0.45" stop-color="#FFF0F4"/>
      <stop offset="0.78" stop-color="#F7D1DB"/>
      <stop offset="1" stop-color="#EBB1C1"/>
    </radialGradient>
  </defs>
  <ellipse cx="120" cy="214" rx="46" ry="10" fill="#EEDDE2" fill-opacity="0.48"/>
  <g filter="url(#shadow3)">
    <path d="M112 196V154C112 140 115 128 120 118C125 128 128 140 128 154V196H112Z" fill="url(#trunk3)"/>
    <path d="M120 130C113 138 106 146 101 157" stroke="#744C3C" stroke-width="4.8" stroke-linecap="round"/>
    <path d="M121 130C129 138 136 146 141 157" stroke="#744C3C" stroke-width="4.8" stroke-linecap="round"/>
    <path d="M114 142C109 148 105 154 102 161" stroke="#875847" stroke-width="3.2" stroke-linecap="round"/>
    <path d="M126 142C131 148 135 154 138 161" stroke="#875847" stroke-width="3.2" stroke-linecap="round"/>
    <path d="M88 127C79 119 77 106 82 93C90 75 111 66 130 70C147 73 159 85 161 101C163 117 155 128 142 133H104C98 133 92 132 88 127Z" fill="url(#petalLight3)"/>
    <path d="M83 116C76 109 76 98 82 90C90 78 105 74 117 80C128 85 132 97 128 108C124 118 113 123 101 123C93 123 87 121 83 116Z" fill="#F8D6DE"/>
    <path d="M120 74C128 67 141 66 151 73C161 80 164 92 158 101C152 111 139 115 127 112C115 108 111 82 120 74Z" fill="#F7CBD7"/>
    <path d="M140 92C146 85 157 84 165 90C174 96 176 106 170 114C163 122 151 124 142 120C134 115 133 99 140 92Z" fill="#F3BDC9"/>
    <path d="M97 82C103 78 111 77 117 81C124 86 126 94 123 102C120 110 111 115 102 115C93 115 86 109 83 101C81 93 87 85 97 82Z" fill="#FFEAF0"/>
    <path d="M100 129C109 123 119 121 129 123C138 124 146 128 149 136C138 141 109 142 100 129Z" fill="#FCE4EA" fill-opacity="0.9"/>
    <circle cx="99" cy="90" r="6" fill="#FFF9FB"/>
    <circle cx="119" cy="80" r="6.5" fill="#FFF9FB"/>
    <circle cx="137" cy="81" r="6" fill="#FFF9FB"/>
    <circle cx="151" cy="96" r="5.5" fill="#FFF9FB"/>
    <circle cx="92" cy="106" r="5.5" fill="#FFF9FB"/>
    <circle cx="112" cy="105" r="5.5" fill="#FFF9FB"/>
    <circle cx="132" cy="106" r="5.5" fill="#FFF9FB"/>
  </g>
</svg>
